<?xml version="1.0" encoding="UTF-8"?><!DOCTYPE svg PUBLIC "-//W3C//DTD SVG 1.1//EN" "http://www.w3.org/Graphics/SVG/1.1/DTD/svg11.dtd"><svg xmlns="http://www.w3.org/2000/svg" xmlns:xlink="http://www.w3.org/1999/xlink"><defs>
    <style>
      .logo2 {
        fill: #fff;
        fill-rule: evenodd;
      }
    </style>
  
		<rect id="SVGID_1_" width="1275.878" height="346.257"/>
	
		<rect id="SVGID_3_" width="1275.878" height="346.257"/>
	
    <style>
      .logo {
        fill: #ed1c24;
        fill-rule: evenodd;
      }
    </style>
  </defs><symbol id="logo-vinabook" viewBox="0 0 434.461 54.657">
<polygon style="fill:#007A43;" points="10.198,17.884 18.85,38.78 27.309,17.884 37.43,17.884 21.129,54.656 16.532,54.656 
	0,17.884 "/>
<path style="fill:#007A43;" d="M44.383,1.197c1.468,0,2.729,0.529,3.786,1.584c1.055,1.056,1.583,2.318,1.583,3.785
	c0,1.417-0.521,2.672-1.564,3.767c-1.043,1.094-2.312,1.641-3.805,1.641c-1.442,0-2.698-0.547-3.766-1.641
	c-1.069-1.095-1.603-2.35-1.603-3.767c0-1.493,0.541-2.761,1.622-3.804C41.718,1.719,42.966,1.197,44.383,1.197 M49.134,53.961
	h-9.502V17.884h9.502V53.961z"/>
<path style="fill:#007A43;" d="M77.395,17.189c3.863,0,6.946,1.269,9.251,3.805c2.305,2.536,3.457,5.878,3.457,10.022v22.944H80.64
	V31.983c0-2.344-0.56-4.197-1.681-5.563c-1.12-1.364-2.646-2.046-4.577-2.046c-1.467,0-2.845,0.431-4.133,1.294
	C68.96,26.53,67.544,27.966,66,29.974v23.987h-9.502V17.884H66v5.06c1.751-2.06,3.547-3.534,5.389-4.422
	C73.229,17.633,75.231,17.189,77.395,17.189"/>
<path style="fill:#007A43;" d="M111.468,17.189c4.635,0,8.176,0.985,10.623,2.954c2.446,1.971,3.669,4.72,3.669,8.248v17.651
	c0,1.366,0.554,2.048,1.661,2.048c0.463,0-0.887-0.198-0.049-0.599c0.836-0.399,1.538-0.856,2.104-1.372v5.486
	c-3.322,2.034-4.361,3.052-7.116,3.052c-1.7,0-3.007-0.285-3.921-0.85c-0.914-0.566-1.552-1.571-1.912-3.015
	c-3.631,2.575-7.275,3.864-10.931,3.864c-2.601,0-4.835-0.875-6.702-2.627c-1.867-1.751-2.8-3.85-2.8-6.296
	c0-3.116,0.927-5.576,2.781-7.378s5.098-3.373,9.734-4.713l7.687-2.24v-1.661c0-3.527-2.138-5.292-6.413-5.292
	c-2.189,0-4.364,0.502-6.527,1.507c-2.163,1.004-4.134,2.485-5.911,4.442v-8.536C101.386,18.747,106.06,17.189,111.468,17.189
	 M105.674,44.305c0,1.313,0.418,2.369,1.255,3.168c0.837,0.798,1.874,1.196,3.11,1.196c2.086,0,4.172-0.952,6.258-2.857V36.31
	c-2.653,0.9-4.732,1.751-6.239,2.549c-1.506,0.799-2.613,1.609-3.322,2.433C106.028,42.116,105.674,43.12,105.674,44.305"/>
<path style="fill:#C82027;" d="M143.141,0v20.201c2.806-2.008,5.987-3.012,9.541-3.012c3.167,0,6.045,0.779,8.633,2.337
	c2.588,1.558,4.597,3.746,6.026,6.566c1.428,2.82,2.143,5.968,2.143,9.444c0,5.923-1.764,10.59-5.292,14.002
	c-3.528,3.412-8.356,5.119-14.485,5.119c-5.51,0-10.867-1.018-16.068-3.052V0H143.141z M143.141,46.43
	c2.034,0.694,4.403,1.043,7.107,1.043c2.91,0,5.221-1.063,6.934-3.188c1.712-2.125,2.568-5.065,2.568-8.826
	c0-3.398-0.863-6.108-2.588-8.131c-1.725-2.021-4.004-3.032-6.836-3.032c-1.314,0-2.525,0.245-3.631,0.734
	c-1.108,0.489-2.293,1.249-3.554,2.279V46.43z"/>
<path style="fill:#C82027;" d="M193.626,17.189c3.759,0,7.171,0.786,10.236,2.356c3.064,1.571,5.433,3.773,7.107,6.605
	c1.674,2.833,2.511,6.039,2.511,9.618c0,3.733-0.805,7.005-2.414,9.812c-1.61,2.806-3.979,5.021-7.107,6.644
	c-3.129,1.621-6.574,2.434-10.333,2.434c-3.786,0-7.223-0.813-10.313-2.434c-3.09-1.622-5.441-3.838-7.05-6.644
	c-1.609-2.807-2.414-6.078-2.414-9.812c0-3.632,0.85-6.856,2.549-9.676c1.7-2.82,4.069-5.008,7.108-6.566
	C186.544,17.968,189.918,17.189,193.626,17.189 M183.815,35.769c0,3.604,0.882,6.482,2.646,8.633
	c1.763,2.149,4.126,3.225,7.088,3.225c3.09,0,5.523-1.029,7.3-3.089c1.777-2.061,2.666-5.009,2.666-8.846
	c0-3.656-0.896-6.483-2.685-8.479c-1.79-1.995-4.217-2.993-7.281-2.993c-2.884,0-5.228,1.056-7.03,3.167
	C184.716,29.498,183.815,32.292,183.815,35.769"/>
<path style="fill:#C82027;" d="M237.645,17.189c3.759,0,7.171,0.786,10.236,2.356c3.064,1.571,5.433,3.773,7.107,6.605
	c1.674,2.833,2.511,6.039,2.511,9.618c0,3.733-0.805,7.005-2.414,9.812c-1.609,2.806-3.979,5.021-7.107,6.644
	c-3.128,1.621-6.574,2.434-10.333,2.434c-3.786,0-7.223-0.813-10.313-2.434c-3.09-1.622-5.441-3.838-7.05-6.644
	c-1.609-2.807-2.414-6.078-2.414-9.812c0-3.632,0.85-6.856,2.549-9.676c1.7-2.82,4.069-5.008,7.108-6.566
	C230.563,17.968,233.937,17.189,237.645,17.189 M227.834,35.769c0,3.604,0.882,6.482,2.646,8.633
	c1.763,2.149,4.126,3.225,7.088,3.225c3.09,0,5.523-1.029,7.3-3.089c1.778-2.061,2.666-5.009,2.666-8.846
	c0-3.656-0.896-6.483-2.685-8.479c-1.79-1.995-4.217-2.993-7.281-2.993c-2.884,0-5.228,1.056-7.03,3.167
	C228.735,29.498,227.834,32.292,227.834,35.769"/>
<path style="fill:#C82027;" d="M271.227,53.961h-9.503V0h9.503V53.961z M297.415,17.884l-14.639,17.807l16.455,18.27h-12.053
	l-15.798-18.27l14.871-17.807H297.415z"/>
<path style="fill:#007A43;" d="M307.017,44.441c1.353,0,2.546,0.499,3.577,1.497c1.03,0.998,1.547,2.208,1.547,3.627
	c0,1.375-0.499,2.567-1.497,3.577c-0.999,1.009-2.208,1.515-3.627,1.515c-1.398,0-2.602-0.506-3.611-1.515
	c-1.009-1.01-1.514-2.202-1.514-3.577c0-1.419,0.51-2.629,1.53-3.627S305.641,44.441,307.017,44.441"/>
<path style="fill:#007A43;" d="M331.78,22.381c3.616,0,6.888,0.699,9.815,2.096v6.954c-2.905-1.686-5.656-2.528-8.251-2.528
	c-2.797,0-5.08,0.87-6.854,2.612c-1.775,1.741-2.662,4.098-2.662,7.07c0,2.905,0.893,5.246,2.678,7.021
	c1.785,1.775,4.165,2.661,7.138,2.661c2.219,0,5.059-0.732,8.519-2.195v6.621c-3.217,1.31-6.533,1.963-9.95,1.963
	c-5.034,0-9.122-1.441-12.26-4.324c-3.14-2.885-4.709-6.712-4.709-11.48c0-4.946,1.536-8.928,4.608-11.945
	C322.924,23.891,326.9,22.381,331.78,22.381"/>
<path style="fill:#007A43;" d="M362.252,22.382c3.238,0,6.177,0.676,8.817,2.029c2.639,1.354,4.68,3.25,6.122,5.69
	c1.441,2.441,2.164,5.202,2.164,8.285c0,3.217-0.694,6.034-2.08,8.452c-1.388,2.417-3.427,4.325-6.122,5.723
	c-2.696,1.397-5.663,2.097-8.901,2.097c-3.262,0-6.223-0.699-8.884-2.097c-2.662-1.397-4.687-3.306-6.072-5.723
	c-1.387-2.418-2.08-5.235-2.08-8.452c0-3.128,0.732-5.906,2.196-8.335c1.463-2.429,3.504-4.314,6.122-5.656
	C356.151,23.053,359.059,22.382,362.252,22.382 M353.8,38.386c0,3.106,0.761,5.585,2.28,7.437c1.52,1.853,3.554,2.778,6.105,2.778
	c2.662,0,4.758-0.887,6.289-2.662c1.529-1.774,2.296-4.313,2.296-7.618c0-3.15-0.771-5.586-2.313-7.305s-3.632-2.579-6.271-2.579
	c-2.485,0-4.504,0.91-6.057,2.729C354.576,32.984,353.8,35.392,353.8,38.386"/>
<path style="fill:#007A43;" d="M402.718,22.381c2.396,0,4.42,0.56,6.072,1.68c1.653,1.12,2.89,2.624,3.71,4.509
	c1.752-2.152,3.499-3.721,5.24-4.708c1.742-0.987,3.656-1.481,5.74-1.481c3.283,0,5.934,1.07,7.953,3.211
	c2.018,2.141,3.027,4.996,3.027,8.567v19.897h-8.186V35.524c0-2.152-0.46-3.848-1.38-5.091c-0.922-1.242-2.258-1.863-4.01-1.863
	c-2.508,0-4.914,1.608-7.221,4.824v20.663h-8.152V35.392c0-2.13-0.488-3.799-1.463-5.008c-0.978-1.209-2.286-1.813-3.927-1.813
	c-1.331,0-2.552,0.382-3.661,1.148c-1.108,0.765-2.295,1.991-3.56,3.676v20.663h-8.186V22.98h8.186v4.359
	c1.485-1.687,2.994-2.934,4.525-3.744C398.958,22.787,400.723,22.381,402.718,22.381"/>
</symbol><symbol id="logo-white" viewBox="0 0 231.875 34">
  
  <path d="M230.653,26.171 C222.124,28.846 213.096,30.146 204.158,30.423 C203.354,30.431 202.138,29.977 201.466,29.425 C199.115,27.100 196.764,24.768 194.416,22.440 C193.746,21.888 193.586,21.034 194.056,20.531 C195.614,18.296 197.106,16.017 198.577,13.721 C199.047,13.156 200.094,12.625 200.894,12.544 C209.900,11.531 218.449,9.312 226.875,5.971 C227.663,5.644 228.438,6.074 228.582,6.929 C229.523,12.583 230.931,18.314 231.860,23.969 C232.000,24.845 231.451,25.909 230.653,26.171 ZM202.094,21.442 C201.865,20.207 200.642,19.288 199.351,19.330 C198.065,19.376 197.206,20.350 197.426,21.559 C197.655,22.764 198.871,23.760 200.166,23.744 C201.460,23.723 202.319,22.678 202.094,21.442 ZM211.504,16.153 C210.998,18.069 210.743,19.014 210.236,20.893 C209.094,19.257 208.526,18.446 207.381,16.836 C206.007,17.031 205.325,17.117 203.947,17.253 C205.980,19.891 207.996,22.532 210.000,25.191 C210.785,25.099 211.174,25.049 211.959,24.940 C212.972,21.777 213.963,18.605 214.935,15.429 C213.561,15.746 212.879,15.894 211.504,16.153 ZM225.313,16.060 C225.131,14.009 223.466,12.644 221.459,13.354 C220.322,13.760 219.431,14.473 218.969,15.595 C218.959,15.604 218.946,15.604 218.935,15.608 C218.859,15.149 218.817,14.917 218.735,14.461 C217.519,14.798 216.910,14.959 215.689,15.252 C216.201,18.180 216.713,21.112 217.222,24.040 C218.446,23.791 219.058,23.658 220.274,23.364 C219.957,21.506 219.797,20.582 219.479,18.735 C219.242,17.362 219.652,16.543 220.706,16.237 C221.360,16.050 221.824,16.210 222.100,16.728 C222.221,16.958 222.353,17.449 222.481,18.199 C222.780,19.956 222.930,20.835 223.229,22.604 C224.448,22.272 225.055,22.091 226.263,21.714 C225.946,19.826 225.630,17.944 225.313,16.060 ZM190.499,32.949 L172.351,32.949 L176.248,4.409 L176.248,4.411 C176.671,2.009 178.667,1.069 181.819,1.055 L182.260,1.059 C182.158,1.055 182.055,1.055 181.953,1.055 L184.950,1.055 L181.557,25.925 L191.461,25.925 L190.499,32.949 ZM162.485,32.949 L161.169,27.410 L149.806,27.410 L146.865,32.949 L138.102,32.949 L153.573,3.150 C153.999,2.339 154.797,1.055 157.800,1.055 C157.809,1.055 157.825,1.055 157.836,1.055 L163.664,1.055 L169.056,23.647 L171.273,32.949 L167.788,32.949 L162.485,32.949 ZM157.817,10.910 L157.739,10.910 L152.937,21.070 L159.803,21.070 L157.817,10.910 ZM129.845,8.077 L129.117,13.407 L138.431,13.407 L137.469,20.431 L128.161,20.431 L127.408,25.925 L139.737,25.925 L136.104,32.949 L118.206,32.949 L122.104,4.406 C122.533,2.009 124.531,1.069 127.676,1.055 L128.119,1.059 C128.014,1.055 127.909,1.055 127.806,1.055 L140.632,1.055 L139.668,8.077 L129.845,8.077 ZM112.041,28.330 C108.480,31.410 104.465,32.949 99.999,32.949 L88.300,32.949 L92.198,4.396 C92.626,2.006 94.623,1.069 97.766,1.055 L98.211,1.059 C98.106,1.055 98.000,1.055 97.900,1.055 L104.351,1.055 C108.829,1.055 112.430,2.590 115.147,5.659 C117.865,8.732 118.919,12.513 118.306,17.003 C117.694,21.477 115.609,25.254 112.041,28.330 ZM108.165,10.462 C106.752,8.870 104.656,8.077 101.893,8.077 L99.939,8.077 L97.501,25.925 L99.371,25.925 C102.180,25.925 104.514,25.143 106.363,23.567 C108.212,21.997 109.331,19.811 109.715,17.003 C110.093,14.235 109.573,12.052 108.165,10.462 ZM80.702,8.077 L77.308,32.949 L69.063,32.949 L72.459,8.077 L68.557,8.077 C67.790,6.125 66.319,4.337 64.740,2.722 C64.136,2.106 63.487,1.563 62.815,1.055 L88.484,1.055 L87.526,8.077 L80.702,8.077 ZM67.813,16.400 C67.109,21.567 64.889,25.793 61.162,29.074 C57.430,32.361 52.997,34.000 47.859,34.000 C42.721,34.000 38.731,32.361 35.900,29.074 C33.071,25.793 32.004,21.567 32.706,16.400 C33.347,11.708 35.675,7.766 39.682,4.588 C43.527,1.528 47.798,-0.000 52.497,-0.000 C57.251,-0.000 61.131,1.523 64.128,4.567 C67.227,7.735 68.459,11.678 67.813,16.400 ZM57.259,10.453 C55.696,8.841 53.750,8.035 51.405,8.035 C49.059,8.035 46.890,8.841 44.883,10.453 C42.808,12.119 41.615,14.118 41.293,16.445 C40.935,19.085 41.458,21.321 42.866,23.135 C44.324,25.025 46.351,25.967 48.954,25.967 C51.562,25.967 53.847,25.025 55.817,23.135 C57.721,21.321 58.854,19.085 59.216,16.445 C59.537,14.104 58.883,12.108 57.259,10.453 ZM31.200,16.194 C30.892,18.471 30.911,20.592 31.248,22.553 L29.828,32.949 L21.314,32.949 L23.158,19.438 L10.839,19.438 L8.999,32.949 L-0.000,32.949 L2.179,16.991 L4.475,1.055 L13.348,1.055 L11.758,12.717 L24.076,12.717 L25.424,1.055 L34.183,1.055 L32.888,10.541 C32.042,12.300 31.475,14.186 31.200,16.194 Z" class="logo2"/>
</symbol><symbol id="logo-yesgo" viewBox="0 0 1275.88 346.257">
<g>
	
	<clipPath id="SVGID_2_">
		<use xlink:href="#SVGID_1_" style="overflow:visible;"/>
	</clipPath>
</g>
<g>
	
	<clipPath id="SVGID_4_">
		<use xlink:href="#SVGID_3_" style="overflow:visible;"/>
	</clipPath>
	<path style="clip-path:url(#SVGID_4_);fill:#F89931;" d="M209.843,1h-55.728c-3.944,0-7.402,2.465-8.387,5.427l-30.186,64.162
		l36.127,86.783l66.56-143.55C221.682,7.41,217.245,1,209.843,1"/>
	<path style="clip-path:url(#SVGID_4_);fill:#F15A22;" d="M0.987,13.822C-1.972,7.41,1.981,1,9.371,1h50.301
		c3.948,0,6.909,2.465,8.381,5.427l73.616,176.82L67.568,340.339c-1.485,2.958-4.442,5.918-8.388,5.918H9.867
		c-7.399,0-11.839-6.41-8.383-13.319l73.491-154.869L0.987,13.822z"/>
	<path style="clip-path:url(#SVGID_4_);fill:#F15A22;" d="M239.611,10.24c0-3.531,2.825-6.709,6.709-6.709h146.185
		c3.884,0,6.709,3.178,6.709,6.709v38.488c0,3.531-2.825,6.709-6.709,6.709h-97.809v43.785h80.507c3.531,0,6.709,3.178,6.709,6.709
		v38.488c0,3.884-3.178,6.709-6.709,6.709h-80.507v47.669h97.809c3.884,0,6.709,3.178,6.709,6.709v38.487
		c0,3.532-2.825,6.709-6.709,6.709H246.32c-3.884,0-6.709-3.177-6.709-6.709V10.24z"/>
	<path style="clip-path:url(#SVGID_4_);fill:#F15A22;" d="M418.279,217.159l16.596-29.309c2.825-4.589,9.534-3.883,12.006-2.118
		c1.412,0.706,26.836,19.421,50.14,19.421c14.124,0,24.364-8.827,24.364-21.186c0-14.831-12.358-26.13-36.369-35.664
		c-30.367-12.005-68.503-35.663-68.503-78.036C416.513,35.311,443.702,0,498.081,0c36.722,0,64.97,18.715,75.563,26.483
		c4.237,2.472,3.531,8.828,2.118,11.3l-18.008,27.189c-2.472,3.884-8.827,7.062-12.005,4.59
		c-3.178-1.766-28.955-21.187-50.494-21.187c-12.712,0-22.246,8.475-22.246,18.009c0,13.065,10.593,22.952,38.488,34.251
		c27.543,10.946,71.327,32.485,71.327,80.507c0,36.371-31.426,73.093-83.332,73.093c-45.903,0-71.327-19.066-79.448-27.188
		C416.513,223.514,415.454,222.102,418.279,217.159"/>
	<path style="clip-path:url(#SVGID_4_);fill:#F15A22;" d="M727.947,0.353c29.66,0,62.146,12.359,86.156,33.192
		c3.18,2.472,3.532,6.709,0.707,9.534l-27.895,29.66c-2.825,2.472-6.709,2.472-9.534,0.353
		c-13.418-12.358-28.954-16.949-46.256-16.949c-38.489,0-69.563,32.486-69.563,71.327c0,38.488,31.427,70.268,69.914,70.268
		c10.241,0,20.833-1.412,31.427-5.65v-20.479h-22.245c-3.885,0-6.709-2.825-6.709-6.357v-34.957c0-3.884,2.824-6.709,6.709-6.709
		h70.974c3.531,0,6.355,3.178,6.355,6.709l0.354,94.985c0,1.765-1.413,4.591-2.825,5.65c0,0-36.37,22.95-87.569,22.95
		c-70.269,0-126.765-55.79-126.765-126.411C601.183,56.85,657.679,0.353,727.947,0.353"/>
	<path style="clip-path:url(#SVGID_4_);fill:#F15A22;" d="M961.346,0c70.619,0,127.116,56.85,127.116,127.471
		c0,70.621-56.497,126.765-127.116,126.765c-70.621,0-126.766-56.144-126.766-126.765C834.58,56.85,890.725,0,961.346,0
		 M961.346,197.738c38.841,0,70.619-31.779,70.619-70.268c0-38.842-31.778-70.974-70.619-70.974
		c-38.488,0-70.269,32.132-70.269,70.974C891.077,165.959,922.857,197.738,961.346,197.738"/>
	<path style="clip-path:url(#SVGID_4_);fill:#BCBEC0;" d="M1103.744,219.285c9.181,0,16.948,7.769,16.948,16.947
		c0,9.005-7.768,16.597-16.948,16.597c-9.004,0-16.596-7.592-16.596-16.597C1087.148,227.054,1094.74,219.285,1103.744,219.285"/>
	<path style="clip-path:url(#SVGID_4_);fill:#BCBEC0;" d="M1115.751,185.213c-1.235-2.296,0.353-4.769,3.001-4.769h19.772
		c1.236,0,2.649,0.883,3.178,1.943l10.416,24.01h0.529l11.124-24.01c1.059-2.118,2.294-1.943,4.766-1.943h17.831
		c2.648,0,4.236,2.473,3.001,4.769l-33.544,65.85c-0.528,0.883-1.94,1.767-3.001,1.767h-0.883c-1.058,0-2.471-0.884-3.001-1.767
		L1115.751,185.213z"/>
	<path style="clip-path:url(#SVGID_4_);fill:#BCBEC0;" d="M1199.787,183.8c0-1.941,1.589-3.354,3.354-3.354h8.298
		c1.06,0,2.648,0.882,3.178,2.119l2.824,7.062c3.885-4.237,12.005-10.945,24.894-10.945c21.892,0,33.544,16.771,33.544,36.896
		v32.132c0,1.766-1.589,3.354-3.355,3.354h-18.89c-1.942,0-3.354-1.589-3.354-3.354v-33.014c0-7.062-4.06-13.242-12.006-13.242
		c-7.061,0-13.417,5.12-13.417,12.359v33.896c0,1.589-0.706,3.354-3.177,3.354h-18.538c-1.765,0-3.354-1.589-3.354-3.354V183.8z"/>
</g>
</symbol><symbol id="logo" viewBox="0 0 231.875 34">
  
  <path d="M230.653,26.171 C222.124,28.846 213.096,30.146 204.158,30.423 C203.354,30.431 202.138,29.977 201.466,29.425 C199.115,27.100 196.764,24.768 194.416,22.440 C193.746,21.888 193.586,21.034 194.056,20.531 C195.614,18.296 197.106,16.017 198.577,13.721 C199.047,13.156 200.094,12.625 200.894,12.544 C209.900,11.531 218.449,9.312 226.875,5.971 C227.663,5.644 228.438,6.074 228.582,6.929 C229.523,12.583 230.931,18.314 231.860,23.969 C232.000,24.845 231.451,25.909 230.653,26.171 ZM202.094,21.442 C201.865,20.207 200.642,19.288 199.351,19.330 C198.065,19.376 197.206,20.350 197.426,21.559 C197.655,22.764 198.871,23.760 200.166,23.744 C201.460,23.723 202.319,22.678 202.094,21.442 ZM211.504,16.153 C210.998,18.069 210.743,19.014 210.236,20.893 C209.094,19.257 208.526,18.446 207.381,16.836 C206.007,17.031 205.325,17.117 203.947,17.253 C205.980,19.891 207.996,22.532 210.000,25.191 C210.785,25.099 211.174,25.049 211.959,24.940 C212.972,21.777 213.963,18.605 214.935,15.429 C213.561,15.746 212.879,15.894 211.504,16.153 ZM225.313,16.060 C225.131,14.009 223.466,12.644 221.459,13.354 C220.322,13.760 219.431,14.473 218.969,15.595 C218.959,15.604 218.946,15.604 218.935,15.608 C218.859,15.149 218.817,14.917 218.735,14.461 C217.519,14.798 216.910,14.959 215.689,15.252 C216.201,18.180 216.713,21.112 217.222,24.040 C218.446,23.791 219.058,23.658 220.274,23.364 C219.957,21.506 219.797,20.582 219.479,18.735 C219.242,17.362 219.652,16.543 220.706,16.237 C221.360,16.050 221.824,16.210 222.100,16.728 C222.221,16.958 222.353,17.449 222.481,18.199 C222.780,19.956 222.930,20.835 223.229,22.604 C224.448,22.272 225.055,22.091 226.263,21.714 C225.946,19.826 225.630,17.944 225.313,16.060 ZM190.499,32.949 L172.351,32.949 L176.248,4.409 L176.248,4.411 C176.671,2.009 178.667,1.069 181.819,1.055 L182.260,1.059 C182.158,1.055 182.055,1.055 181.953,1.055 L184.950,1.055 L181.557,25.925 L191.461,25.925 L190.499,32.949 ZM162.485,32.949 L161.169,27.410 L149.806,27.410 L146.865,32.949 L138.102,32.949 L153.573,3.150 C153.999,2.339 154.797,1.055 157.800,1.055 C157.809,1.055 157.825,1.055 157.836,1.055 L163.664,1.055 L169.056,23.647 L171.273,32.949 L167.788,32.949 L162.485,32.949 ZM157.817,10.910 L157.739,10.910 L152.937,21.070 L159.803,21.070 L157.817,10.910 ZM129.845,8.077 L129.117,13.407 L138.431,13.407 L137.469,20.431 L128.161,20.431 L127.408,25.925 L139.737,25.925 L136.104,32.949 L118.206,32.949 L122.104,4.406 C122.533,2.009 124.531,1.069 127.676,1.055 L128.119,1.059 C128.014,1.055 127.909,1.055 127.806,1.055 L140.632,1.055 L139.668,8.077 L129.845,8.077 ZM112.041,28.330 C108.480,31.410 104.465,32.949 99.999,32.949 L88.300,32.949 L92.198,4.396 C92.626,2.006 94.623,1.069 97.766,1.055 L98.211,1.059 C98.106,1.055 98.000,1.055 97.900,1.055 L104.351,1.055 C108.829,1.055 112.430,2.590 115.147,5.659 C117.865,8.732 118.919,12.513 118.306,17.003 C117.694,21.477 115.609,25.254 112.041,28.330 ZM108.165,10.462 C106.752,8.870 104.656,8.077 101.893,8.077 L99.939,8.077 L97.501,25.925 L99.371,25.925 C102.180,25.925 104.514,25.143 106.363,23.567 C108.212,21.997 109.331,19.811 109.715,17.003 C110.093,14.235 109.573,12.052 108.165,10.462 ZM80.702,8.077 L77.308,32.949 L69.063,32.949 L72.459,8.077 L68.557,8.077 C67.790,6.125 66.319,4.337 64.740,2.722 C64.136,2.106 63.487,1.563 62.815,1.055 L88.484,1.055 L87.526,8.077 L80.702,8.077 ZM67.813,16.400 C67.109,21.567 64.889,25.793 61.162,29.074 C57.430,32.361 52.997,34.000 47.859,34.000 C42.721,34.000 38.731,32.361 35.900,29.074 C33.071,25.793 32.004,21.567 32.706,16.400 C33.347,11.708 35.675,7.766 39.682,4.588 C43.527,1.528 47.798,-0.000 52.497,-0.000 C57.251,-0.000 61.131,1.523 64.128,4.567 C67.227,7.735 68.459,11.678 67.813,16.400 ZM57.259,10.453 C55.696,8.841 53.750,8.035 51.405,8.035 C49.059,8.035 46.890,8.841 44.883,10.453 C42.808,12.119 41.615,14.118 41.293,16.445 C40.935,19.085 41.458,21.321 42.866,23.135 C44.324,25.025 46.351,25.967 48.954,25.967 C51.562,25.967 53.847,25.025 55.817,23.135 C57.721,21.321 58.854,19.085 59.216,16.445 C59.537,14.104 58.883,12.108 57.259,10.453 ZM31.200,16.194 C30.892,18.471 30.911,20.592 31.248,22.553 L29.828,32.949 L21.314,32.949 L23.158,19.438 L10.839,19.438 L8.999,32.949 L-0.000,32.949 L2.179,16.991 L4.475,1.055 L13.348,1.055 L11.758,12.717 L24.076,12.717 L25.424,1.055 L34.183,1.055 L32.888,10.541 C32.042,12.300 31.475,14.186 31.200,16.194 Z" class="logo"/>
</symbol></svg>